# xmcd CD database file
#
# Track frame offsets:
#	183
#	13343
#	26360
#	39065
#	56935
#	70850
#	90690
#	106670
#	127320
#	140380
#	152153
#	168368
#	181175
#	191753
#	202015
#	214693
#
# Disc length: 3033 seconds
#
# Revision: 2
# Processed by: cddbd v1.5.2PL0 Copyright (c) Steve Scherf et al.
# Submitted via: CDex 1.86
#
DISCID=e00bd710
DTITLE=Various Artist - Pop Anthology 1969
DYEAR=1900
DGENRE=Blues
TTITLE0=Tommy Roe - Dizzy
TTITLE1=Vanity Faire - Hitching' A Ride
TTITLE2=B.J. Thomas - Raindrops Keep Fallin' On My Head
TTITLE3=Marmalade - Reflections Of My Life
TTITLE4=Percy Sledge - My Special Prayer
TTITLE5=The Tremeloes - (Call me) Number One
TTITLE6=The Foundation - In The Bad Bad Old Days
TTITLE7=Tommy James - Crystal Blue Persuasion
TTITLE8=The Original Lead Singers Of The Temptation - Get Ready
TTITLE9=Sam and Dave - Soul Sister, Brown Sugar
TTITLE10=The Zombies - The Of The Season
TTITLE11=The Dells - Oh, What A Nght
TTITLE12=Roger Whittaker - Durham Town
TTITLE13=Mary Hopkins - Goodbye
TTITLE14=The Archies - Suger, Sugar
TTITLE15=Kenny Rogers - Ruby Don't Take Your Love To Town
EXTD=
EXTT0=
EXTT1=
EXTT2=
EXTT3=
EXTT4=
EXTT5=
EXTT6=
EXTT7=
EXTT8=
EXTT9=
EXTT10=
EXTT11=
EXTT12=
EXTT13=
EXTT14=
EXTT15=
PLAYORDER=
